<ttFont>
<head>
		<!-- Most of this table will be recalculated by the compiler -->
		<tableVersion value="1.0" />
		<fontRevision value="1.0" />
		<checkSumAdjustment value="0x559bba69" />
		<magicNumber value="0x5f0f3cf5" />
		<flags value="00000000 00000000" />
		<unitsPerEm value="2000" />
		<created value="Sat Sep  6 02:08:43 2025" />
		<modified value="Sat Sep  6 02:08:43 2025" />
		<xMin value="0" />
		<yMin value="0" />
		<xMax value="1538" />
		<yMax value="2000" />
		<macStyle value="00000000 00000000" />
		<lowestRecPPEM value="8" />
		<fontDirectionHint value="2" />
		<indexToLocFormat value="1" />
		<glyphDataFormat value="0" />
	</head>
				<CharString name=".notdef">
					1643 1469 50 rmoveto
					-700 931 rlineto
					-700 -931 rlineto
					-19 19 rmoveto
					700 931 rlineto
					-700 931 rlineto
					-1862 vlineto
					1438 hmoveto
					1862 vlineto
					-700 -931 rlineto
					700 -931 rlineto
					-719 950 rmoveto
					700 931 rlineto
					-1400 hlineto
					700 -931 rlineto
					-769 -1019 rmoveto
					2000 vlineto
					1538 hlineto
					-2000 vlineto
					endchar
				</CharString>
				<CharString name="A">
					1368 526 1474 rmoveto
					-107 callgsubr
					endchar
				</CharString>
				<CharString name="AE">
					1368 526 0 rmoveto
					-81 callgsubr
					endchar
				</CharString>
				<CharString name="Aacute">
					1368 526 1474 rmoveto
					-107 callgsubr
					endchar
				</CharString>
				<CharString name="Acircumflex">
					1368 526 1474 rmoveto
					-107 callgsubr
					endchar
				</CharString>
				<CharString name="Adieresis">
					1368 526 1474 rmoveto
					-107 callgsubr
					endchar
				</CharString>
				<CharString name="Agrave">
					1368 526 1474 rmoveto
					-107 callgsubr
					endchar
				</CharString>
				<CharString name="Aring">
					1368 526 1474 rmoveto
					-107 callgsubr
					endchar
				</CharString>
				<CharString name="Atilde">
					1368 526 1474 rmoveto
					-107 callgsubr
					endchar
				</CharString>
				<CharString name="B">
					1368 105 1368 rmoveto
					-106 callgsubr
					endchar
				</CharString>
				<CharString name="C">
					1368 737 947 rmoveto
					-105 callgsubr
					endchar
				</CharString>
				<CharString name="Ccedilla">
					1368 737 947 rmoveto
					-105 callgsubr
					endchar
				</CharString>
				<CharString name="D">
					1368 105 0 rmoveto
					-104 callgsubr
					endchar
				</CharString>
				<CharString name="E">
					1368 105 0 rmoveto
					-103 callgsubr
					endchar
				</CharString>
				<CharString name="Eacute">
					1368 105 0 rmoveto
					-103 callgsubr
					endchar
				</CharString>
				<CharString name="Ecircumflex">
					1368 105 0 rmoveto
					-103 callgsubr
					endchar
				</CharString>
				<CharString name="Edieresis">
					1368 105 0 rmoveto
					-103 callgsubr
					endchar
				</CharString>
				<CharString name="Egrave">
					1368 105 0 rmoveto
					-103 callgsubr
					endchar
				</CharString>
				<CharString name="F">
					1157 105 0 rmoveto
					-102 callgsubr
					endchar
				</CharString>
				<CharString name="G">
					1368 947 0 rmoveto
					-101 callgsubr
					endchar
				</CharString>
				<CharString name="H">
					1368 526 0 rmoveto
					-100 callgsubr
					endchar
				</CharString>
				<CharString name="I">
					1368 105 1368 rmoveto
					-99 callgsubr
					endchar
				</CharString>
				<CharString name="Iacute">
					1368 105 1368 rmoveto
					-99 callgsubr
					endchar
				</CharString>
				<CharString name="Icircumflex">
					1368 105 1368 rmoveto
					-99 callgsubr
					endchar
				</CharString>
				<CharString name="Idieresis">
					1368 105 1368 rmoveto
					-99 callgsubr
					endchar
				</CharString>
				<CharString name="Igrave">
					1368 105 1368 rmoveto
					-99 callgsubr
					endchar
				</CharString>
				<CharString name="J">
					1157 316 211 rmoveto
					-98 callgsubr
					endchar
				</CharString>
				<CharString name="K">
					1368 105 0 rmoveto
					-97 callgsubr
					endchar
				</CharString>
				<CharString name="L">
					1157 316 947 rmoveto
					-96 callgsubr
					endchar
				</CharString>
				<CharString name="M">
					1368 105 0 rmoveto
					-95 callgsubr
					endchar
				</CharString>
				<CharString name="N">
					1368 105 0 rmoveto
					-94 callgsubr
					endchar
				</CharString>
				<CharString name="Ntilde">
					1368 105 0 rmoveto
					-94 callgsubr
					endchar
				</CharString>
				<CharString name="O">
					1157 105 0 rmoveto
					-93 callgsubr
					endchar
				</CharString>
				<CharString name="OE">
					1368 526 0 rmoveto
					-80 callgsubr
					endchar
				</CharString>
				<CharString name="Oacute">
					1157 105 0 rmoveto
					-93 callgsubr
					endchar
				</CharString>
				<CharString name="Ocircumflex">
					1157 105 0 rmoveto
					-93 callgsubr
					endchar
				</CharString>
				<CharString name="Odieresis">
					1157 105 0 rmoveto
					-93 callgsubr
					endchar
				</CharString>
				<CharString name="Ograve">
					1157 105 0 rmoveto
					-93 callgsubr
					endchar
				</CharString>
				<CharString name="Oslash">
					1157 105 0 rmoveto
					-93 callgsubr
					endchar
				</CharString>
				<CharString name="Otilde">
					1157 105 0 rmoveto
					-93 callgsubr
					endchar
				</CharString>
				<CharString name="P">
					1368 947 0 rmoveto
					-92 callgsubr
					endchar
				</CharString>
				<CharString name="Q">
					1368 421 1579 rmoveto
					-91 callgsubr
					endchar
				</CharString>
				<CharString name="R">
					1368 105 0 rmoveto
					-90 callgsubr
					endchar
				</CharString>
				<CharString name="S">
					1368 316 211 rmoveto
					-89 callgsubr
					endchar
				</CharString>
				<CharString name="T">
					1368 0 0 rmoveto
					-88 callgsubr
					endchar
				</CharString>
				<CharString name="U">
					1368 105 0 rmoveto
					-87 callgsubr
					endchar
				</CharString>
				<CharString name="Uacute">
					1368 105 0 rmoveto
					-87 callgsubr
					endchar
				</CharString>
				<CharString name="Ucircumflex">
					1368 105 0 rmoveto
					-87 callgsubr
					endchar
				</CharString>
				<CharString name="Udieresis">
					1368 105 0 rmoveto
					-87 callgsubr
					endchar
				</CharString>
				<CharString name="Ugrave">
					1368 105 0 rmoveto
					-87 callgsubr
					endchar
				</CharString>
				<CharString name="Uring">
					1368 105 0 rmoveto
					-87 callgsubr
					endchar
				</CharString>
				<CharString name="V">
					1368 105 0 rmoveto
					-86 callgsubr
					endchar
				</CharString>
				<CharString name="W">
					1368 105 0 rmoveto
					-85 callgsubr
					endchar
				</CharString>
				<CharString name="X">
					1368 0 105 rmoveto
					-84 callgsubr
					endchar
				</CharString>
				<CharString name="Y">
					1368 421 1263 rmoveto
					-83 callgsubr
					endchar
				</CharString>
				<CharString name="Yacute">
					1368 421 1263 rmoveto
					-83 callgsubr
					endchar
				</CharString>
				<CharString name="Ydieresis">
					1368 421 1263 rmoveto
					-83 callgsubr
					endchar
				</CharString>
				<CharString name="Z">
					1368 947 0 rmoveto
					-82 callgsubr
					endchar
				</CharString>
				<CharString name="a">
					1368 526 1474 rmoveto
					-107 callgsubr
					endchar
				</CharString>
				<CharString name="aacute">
					1368 526 1474 rmoveto
					-107 callgsubr
					endchar
				</CharString>
				<CharString name="acircumflex">
					1368 526 1474 rmoveto
					-107 callgsubr
					endchar
				</CharString>
				<CharString name="adieresis">
					1368 526 1474 rmoveto
					-107 callgsubr
					endchar
				</CharString>
				<CharString name="ae">
					1368 526 0 rmoveto
					-81 callgsubr
					endchar
				</CharString>
				<CharString name="agrave">
					1368 526 1474 rmoveto
					-107 callgsubr
					endchar
				</CharString>
				<CharString name="ampersand">
					1368 421 0 rmoveto
					-58 0 -47 47 0 58 rrcurveto
					0 58 47 48 58 0 rrcurveto
					211 hlineto
					210 -106 rlineto
					-210 -105 rlineto
					-211 947 rmoveto
					-58 0 -47 48 0 58 rrcurveto
					0 58 47 47 58 0 rrcurveto
					421 hlineto
					211 -105 rlineto
					-211 -106 rlineto
					-737 -947 rmoveto
					-105 211 rlineto
					1684 vlineto
					0 58 47 47 58 0 rrcurveto
					58 0 48 -47 0 -58 rrcurveto
					-1684 vlineto
					-106 -211 rlineto
					316 1789 rmoveto
					-58 0 -47 48 0 58 rrcurveto
					0 58 47 47 58 0 rrcurveto
					211 hlineto
					210 -105 rlineto
					-210 -106 rlineto
					endchar
				</CharString>
				<CharString name="aring">
					1368 526 1474 rmoveto
					-107 callgsubr
					endchar
				</CharString>
				<CharString name="asciicircum">
					1157 0 1263 rmoveto
					105 211 rlineto
					106 105 rlineto
					52 hlineto
					29 0 24 -24 0 -29 rrcurveto
					-52 vlineto
					-105 -106 rlineto
					-211 -105 rlineto
					842 hmoveto
					-210 105 rlineto
					-106 106 rlineto
					52 vlineto
					0 29 24 24 29 0 rrcurveto
					53 hlineto
					105 -105 rlineto
					105 -211 rlineto
					endchar
				</CharString>
				<CharString name="asciitilde">
					1368 526 737 rmoveto
					-58 0 -47 47 0 58 rrcurveto
					0 58 47 47 58 0 rrcurveto
					421 hlineto
					106 -105 rlineto
					-106 -105 rlineto
					-842 421 rmoveto
					-58 0 -47 47 0 58 rrcurveto
					0 58 47 47 58 0 rrcurveto
					421 hlineto
					106 -105 rlineto
					-106 -105 rlineto
					endchar
				</CharString>
				<CharString name="asterisk">
					631 158 1263 rmoveto
					-53 53 rlineto
					52 vlineto
					-52 hlineto
					-29 0 -24 24 0 29 rrcurveto
					0 29 24 24 29 0 rrcurveto
					52 hlineto
					52 vlineto
					0 29 24 24 29 0 rrcurveto
					29 0 24 -24 0 -29 rrcurveto
					-52 vlineto
					52 hlineto
					53 -53 rlineto
					-53 -53 rlineto
					-52 hlineto
					-52 vlineto
					-53 -53 rlineto
					endchar
				</CharString>
				<CharString name="at">
					1368 0 0 rmoveto
					105 211 rlineto
					737 736 rlineto
					106 vlineto
					-842 842 rlineto
					52 vlineto
					0 29 24 24 29 0 rrcurveto
					52 hlineto
					737 -737 rlineto
					632 vlineto
					0 58 47 47 58 0 rrcurveto
					59 0 47 -47 0 -58 rrcurveto
					-948 vlineto
					-842 -842 rlineto
					-211 -105 rlineto
					endchar
				</CharString>
				<CharString name="atilde">
					1368 526 1474 rmoveto
					-107 callgsubr
					endchar
				</CharString>
				<CharString name="b">
					1368 105 1368 rmoveto
					-106 callgsubr
					endchar
				</CharString>
				<CharString name="backslash">
					1368 1053 0 rmoveto
					-106 53 rlineto
					-52 52 rlineto
					-895 1790 rlineto
					52 vlineto
					0 29 24 24 29 0 rrcurveto
					52 hlineto
					948 -1895 rlineto
					-105 vlineto
					endchar
				</CharString>
				<CharString name="bar">
					526 105 0 rmoveto
					-105 211 rlineto
					1684 vlineto
					0 58 47 47 58 0 rrcurveto
					58 0 48 -47 0 -58 rrcurveto
					-1684 vlineto
					-106 -211 rlineto
					endchar
				</CharString>
				<CharString name="bullet">
					631 105 842 rmoveto
					-58 0 -47 47 0 58 rrcurveto
					106 vlineto
					0 58 47 47 58 0 rrcurveto
					106 hlineto
					58 0 47 -47 0 -58 rrcurveto
					-106 vlineto
					0 -58 -47 -47 -58 0 rrcurveto
					endchar
				</CharString>
				<CharString name="c">
					1368 737 947 rmoveto
					-105 callgsubr
					endchar
				</CharString>
				<CharString name="ccedilla">
					1368 737 947 rmoveto
					-105 callgsubr
					endchar
				</CharString>
				<CharString name="colon">
					526 105 0 rmoveto
					-58 0 -47 47 0 58 rrcurveto
					0 58 47 48 58 0 rrcurveto
					58 0 48 -48 0 -58 rrcurveto
					0 -58 -48 -47 -58 0 rrcurveto
					1368 vmoveto
					-58 0 -47 48 0 58 rrcurveto
					0 58 47 47 58 0 rrcurveto
					58 0 48 -47 0 -58 rrcurveto
					0 -59 -48 -47 -58 0 rrcurveto
					endchar
				</CharString>
				<CharString name="comma">
					631 0 0 rmoveto
					105 211 rlineto
					106 105 rlineto
					52 hlineto
					29 0 24 -24 0 -29 rrcurveto
					-53 vlineto
					-105 -105 rlineto
					-211 -105 rlineto
					211 421 rmoveto
					-59 0 -47 47 0 58 rrcurveto
					0 59 47 47 59 0 rrcurveto
					58 0 47 -48 0 -58 rrcurveto
					0 -58 -47 -47 -58 0 rrcurveto
					endchar
				</CharString>
				<CharString name="copyright">
					1157 105 421 rmoveto
					-105 211 rlineto
					842 vlineto
					0 58 47 47 58 0 rrcurveto
					527 hlineto
					210 -105 rlineto
					-210 -106 rlineto
					-210 vlineto
					-106 -211 rlineto
					-105 211 rlineto
					210 vlineto
					-210 hlineto
					-736 vlineto
					-106 -211 rlineto
					endchar
				</CharString>
				<CharString name="d">
					1368 105 0 rmoveto
					-104 callgsubr
					endchar
				</CharString>
				<CharString name="divide">
					1368 526 632 rmoveto
					-58 0 -47 47 0 58 rrcurveto
					0 58 47 47 58 0 rrcurveto
					59 0 47 -47 0 -58 rrcurveto
					0 -58 -48 -47 -58 0 rrcurveto
					-421 315 rmoveto
					-58 0 -47 48 0 58 rrcurveto
					0 58 47 47 58 0 rrcurveto
					737 hlineto
					211 -105 rlineto
					-211 -106 rlineto
					-316 316 rmoveto
					-58 0 -47 47 0 58 rrcurveto
					0 59 47 47 58 0 rrcurveto
					59 0 47 -47 0 -59 rrcurveto
					0 -58 -48 -47 -58 0 rrcurveto
					endchar
				</CharString>
				<CharString name="dollar">
					1368 737 211 rmoveto
					105 210 rlineto
					105 105 rlineto
					53 hlineto
					29 0 24 -23 0 -29 rrcurveto
					-53 vlineto
					-106 -105 rlineto
					-210 -105 rlineto
					315 vmoveto
					105 211 rlineto
					105 105 rlineto
					53 hlineto
					29 0 24 -24 0 -29 rrcurveto
					-52 vlineto
					-106 -105 rlineto
					-210 -106 rlineto
					-737 737 rmoveto
					105 211 rlineto
					106 105 rlineto
					52 hlineto
					29 0 24 -24 0 -29 rrcurveto
					-52 vlineto
					-105 -106 rlineto
					-211 -105 rlineto
					316 vmoveto
					105 210 rlineto
					106 106 rlineto
					52 hlineto
					29 0 24 -24 0 -29 rrcurveto
					-53 vlineto
					-105 -105 rlineto
					-211 -105 rlineto
					526 -1579 rmoveto
					-105 211 rlineto
					1684 vlineto
					0 58 47 47 58 0 rrcurveto
					59 0 47 -47 0 -58 rrcurveto
					-1684 vlineto
					-106 -211 rlineto
					endchar
				</CharString>
				<CharString name="e">
					1368 105 0 rmoveto
					-103 callgsubr
					endchar
				</CharString>
				<CharString name="eacute">
					1368 105 0 rmoveto
					-103 callgsubr
					endchar
				</CharString>
				<CharString name="ecircumflex">
					1368 105 0 rmoveto
					-103 callgsubr
					endchar
				</CharString>
				<CharString name="edieresis">
					1368 105 0 rmoveto
					-103 callgsubr
					endchar
				</CharString>
				<CharString name="egrave">
					1368 105 0 rmoveto
					-103 callgsubr
					endchar
				</CharString>
				<CharString name="eight">
					1368 0 211 rmoveto
					105 210 rlineto
					106 105 rlineto
					52 hlineto
					29 0 24 -23 0 -29 rrcurveto
					-53 vlineto
					-105 -105 rlineto
					-211 -105 rlineto
					1053 hmoveto
					-211 105 rlineto
					-105 105 rlineto
					53 vlineto
					0 29 23 23 29 0 rrcurveto
					53 hlineto
					105 -105 rlineto
					106 -210 rlineto
					-1053 315 rmoveto
					105 211 rlineto
					106 105 rlineto
					52 hlineto
					29 0 24 -24 0 -29 rrcurveto
					-52 vlineto
					-105 -105 rlineto
					-211 -106 rlineto
					737 vmoveto
					105 211 rlineto
					106 105 rlineto
					52 hlineto
					29 0 24 -24 0 -29 rrcurveto
					-52 vlineto
					-105 -106 rlineto
					-211 -105 rlineto
					1053 hmoveto
					-211 105 rlineto
					-105 106 rlineto
					52 vlineto
					0 29 23 24 29 0 rrcurveto
					53 hlineto
					105 -105 rlineto
					106 -211 rlineto
					-1053 316 rmoveto
					105 210 rlineto
					106 106 rlineto
					52 hlineto
					29 0 24 -24 0 -29 rrcurveto
					-53 vlineto
					-105 -105 rlineto
					-211 -105 rlineto
					1053 hmoveto
					-211 105 rlineto
					-105 105 rlineto
					53 vlineto
					0 29 23 24 29 0 rrcurveto
					53 hlineto
					105 -106 rlineto
					106 -210 rlineto
					-527 -1579 rmoveto
					-105 211 rlineto
					736 vlineto
					-316 hlineto
					-58 0 -47 48 0 58 rrcurveto
					0 58 47 47 58 0 rrcurveto
					316 hlineto
					737 vlineto
					0 58 47 47 58 0 rrcurveto
					59 0 47 -47 0 -58 rrcurveto
					-737 vlineto
					210 hlineto
					211 -105 rlineto
					-211 -106 rlineto
					-210 hlineto
					-736 vlineto
					-106 -211 rlineto
					endchar
				</CharString>
				<CharString name="ellipsis">
					1157 105 0 rmoveto
					-58 0 -47 47 0 58 rrcurveto
					0 58 47 48 58 0 rrcurveto
					58 0 48 -48 0 -58 rrcurveto
					0 -58 -48 -47 -58 0 rrcurveto
					316 hmoveto
					-58 0 -47 47 0 58 rrcurveto
					0 58 47 48 58 0 rrcurveto
					58 0 47 -48 0 -58 rrcurveto
					0 -58 -47 -47 -58 0 rrcurveto
					316 hmoveto
					-58 0 -47 47 0 58 rrcurveto
					0 58 47 48 58 0 rrcurveto
					58 0 47 -48 0 -58 rrcurveto
					0 -58 -47 -47 -58 0 rrcurveto
					endchar
				</CharString>
				<CharString name="emdash">
					1368 105 947 rmoveto
					-79 callgsubr
					endchar
				</CharString>
				<CharString name="equal">
					1368 105 737 rmoveto
					-58 0 -47 47 0 58 rrcurveto
					0 58 47 47 58 0 rrcurveto
					737 hlineto
					211 -105 rlineto
					-211 -105 rlineto
					-737 421 rmoveto
					-58 0 -47 47 0 58 rrcurveto
					0 58 47 47 58 0 rrcurveto
					737 hlineto
					211 -105 rlineto
					-211 -105 rlineto
					endchar
				</CharString>
				<CharString name="exclam">
					526 105 0 rmoveto
					-58 0 -47 47 0 58 rrcurveto
					0 58 47 48 58 0 rrcurveto
					58 0 48 -48 0 -58 rrcurveto
					0 -58 -48 -47 -58 0 rrcurveto
					421 vmoveto
					-105 211 rlineto
					842 vlineto
					0 58 47 47 58 0 rrcurveto
					58 0 48 -47 0 -58 rrcurveto
					-842 vlineto
					-106 -211 rlineto
					endchar
				</CharString>
				<CharString name="exclamdown">
					526 105 421 rmoveto
					-105 211 rlineto
					842 vlineto
					0 58 47 47 58 0 rrcurveto
					58 0 48 -47 0 -58 rrcurveto
					-842 vlineto
					-106 -211 rlineto
					1368 vmoveto
					-58 0 -47 48 0 58 rrcurveto
					0 58 47 47 58 0 rrcurveto
					58 0 48 -47 0 -58 rrcurveto
					0 -58 -48 -48 -58 0 rrcurveto
					endchar
				</CharString>
				<CharString name="f">
					1157 105 0 rmoveto
					-102 callgsubr
					endchar
				</CharString>
				<CharString name="five">
					1368 0 211 rmoveto
					105 210 rlineto
					106 105 rlineto
					52 hlineto
					29 0 24 -23 0 -29 rrcurveto
					-53 vlineto
					-105 -105 rlineto
					-211 -105 rlineto
					315 vmoveto
					105 211 rlineto
					106 105 rlineto
					52 hlineto
					29 0 24 -24 0 -29 rrcurveto
					-52 vlineto
					-105 -105 rlineto
					-211 -106 rlineto
					737 vmoveto
					105 211 rlineto
					106 105 rlineto
					52 hlineto
					29 0 24 -24 0 -29 rrcurveto
					-52 vlineto
					-105 -106 rlineto
					-211 -105 rlineto
					316 vmoveto
					105 210 rlineto
					106 106 rlineto
					52 hlineto
					29 0 24 -24 0 -29 rrcurveto
					-53 vlineto
					-105 -105 rlineto
					-211 -105 rlineto
					526 -1579 rmoveto
					-105 211 rlineto
					736 vlineto
					-316 hlineto
					-58 0 -47 48 0 58 rrcurveto
					0 58 47 47 58 0 rrcurveto
					316 hlineto
					737 vlineto
					0 58 47 47 58 0 rrcurveto
					59 0 47 -47 0 -58 rrcurveto
					-737 vlineto
					210 hlineto
					211 -105 rlineto
					-211 -106 rlineto
					-210 hlineto
					-736 vlineto
					-106 -211 rlineto
					endchar
				</CharString>
				<CharString name="four">
					947 0 211 rmoveto
					105 210 rlineto
					106 105 rlineto
					52 hlineto
					29 0 24 -23 0 -29 rrcurveto
					-53 vlineto
					-105 -105 rlineto
					-211 -105 rlineto
					315 vmoveto
					105 211 rlineto
					106 105 rlineto
					52 hlineto
					29 0 24 -24 0 -29 rrcurveto
					-52 vlineto
					-105 -105 rlineto
					-211 -106 rlineto
					737 vmoveto
					105 211 rlineto
					106 105 rlineto
					52 hlineto
					29 0 24 -24 0 -29 rrcurveto
					-52 vlineto
					-105 -106 rlineto
					-211 -105 rlineto
					316 vmoveto
					105 210 rlineto
					106 106 rlineto
					52 hlineto
					29 0 24 -24 0 -29 rrcurveto
					-53 vlineto
					-105 -105 rlineto
					-211 -105 rlineto
					526 -1579 rmoveto
					-105 211 rlineto
					1684 vlineto
					0 58 47 47 58 0 rrcurveto
					59 0 47 -47 0 -58 rrcurveto
					-1684 vlineto
					-106 -211 rlineto
					endchar
				</CharString>
				<CharString name="g">
					1368 947 0 rmoveto
					-101 callgsubr
					endchar
				</CharString>
				<CharString name="grave">
					631 316 1263 rmoveto
					-211 105 rlineto
					-105 106 rlineto
					52 vlineto
					0 29 24 24 29 0 rrcurveto
					52 hlineto
					106 -105 rlineto
					105 -211 rlineto
					endchar
				</CharString>
				<CharString name="greater">
					1263 0 0 rmoveto
					105 211 rlineto
					737 736 rlineto
					53 hlineto
					29 0 23 -23 0 -29 rrcurveto
					-53 vlineto
					-736 -737 rlineto
					-211 -105 rlineto
					947 1053 rmoveto
					-210 105 rlineto
					-737 737 rlineto
					52 vlineto
					0 29 24 24 29 0 rrcurveto
					52 hlineto
					737 -737 rlineto
					105 -210 rlineto
					endchar
				</CharString>
				<CharString name="h">
					1368 526 0 rmoveto
					-100 callgsubr
					endchar
				</CharString>
				<CharString name="hyphen">
					947 105 947 rmoveto
					-58 0 -47 48 0 58 rrcurveto
					0 58 47 47 58 0 rrcurveto
					421 hlineto
					106 -105 rlineto
					-106 -106 rlineto
					endchar
				</CharString>
				<CharString name="i">
					1368 105 1368 rmoveto
					-99 callgsubr
					endchar
				</CharString>
				<CharString name="iacute">
					1368 105 1368 rmoveto
					-99 callgsubr
					endchar
				</CharString>
				<CharString name="icircumflex">
					1368 105 1368 rmoveto
					-99 callgsubr
					endchar
				</CharString>
				<CharString name="idieresis">
					1368 105 1368 rmoveto
					-99 callgsubr
					endchar
				</CharString>
				<CharString name="igrave">
					1368 105 1368 rmoveto
					-99 callgsubr
					endchar
				</CharString>
				<CharString name="j">
					1157 316 211 rmoveto
					-98 callgsubr
					endchar
				</CharString>
				<CharString name="k">
					1368 105 0 rmoveto
					-97 callgsubr
					endchar
				</CharString>
				<CharString name="l">
					1157 316 947 rmoveto
					-96 callgsubr
					endchar
				</CharString>
				<CharString name="less">
					1263 947 0 rmoveto
					-210 105 rlineto
					-737 737 rlineto
					53 vlineto
					0 29 24 23 29 0 rrcurveto
					52 hlineto
					737 -736 rlineto
					105 -211 rlineto
					-947 1053 rmoveto
					105 210 rlineto
					737 737 rlineto
					53 hlineto
					29 0 23 -24 0 -29 rrcurveto
					-52 vlineto
					-736 -737 rlineto
					-211 -105 rlineto
					endchar
				</CharString>
				<CharString name="m">
					1368 105 0 rmoveto
					-95 callgsubr
					endchar
				</CharString>
				<CharString name="multiply">
					1368 0 526 rmoveto
					105 211 rlineto
					316 316 rlineto
					-421 421 rlineto
					52 vlineto
					0 29 24 24 29 0 rrcurveto
					52 hlineto
					421 -421 rlineto
					421 421 rlineto
					53 hlineto
					29 0 24 -24 0 -29 rrcurveto
					-52 vlineto
					-421 -421 rlineto
					315 -316 rlineto
					106 -211 rlineto
					-211 106 rlineto
					-316 315 rlineto
					-315 -315 rlineto
					-211 -106 rlineto
					endchar
				</CharString>
				<CharString name="n">
					1368 105 0 rmoveto
					-94 callgsubr
					endchar
				</CharString>
				<CharString name="nine">
					1368 0 211 rmoveto
					105 210 rlineto
					106 105 rlineto
					52 hlineto
					29 0 24 -23 0 -29 rrcurveto
					-53 vlineto
					-105 -105 rlineto
					-211 -105 rlineto
					1053 hmoveto
					-211 105 rlineto
					-105 105 rlineto
					53 vlineto
					0 29 23 23 29 0 rrcurveto
					53 hlineto
					105 -105 rlineto
					106 -210 rlineto
					-1053 315 rmoveto
					105 211 rlineto
					106 105 rlineto
					52 hlineto
					29 0 24 -24 0 -29 rrcurveto
					-52 vlineto
					-105 -105 rlineto
					-211 -106 rlineto
					1053 hmoveto
					-211 106 rlineto
					-105 105 rlineto
					52 vlineto
					0 29 23 24 29 0 rrcurveto
					53 hlineto
					105 -105 rlineto
					106 -211 rlineto
					-1053 737 rmoveto
					105 211 rlineto
					106 105 rlineto
					52 hlineto
					29 0 24 -24 0 -29 rrcurveto
					-52 vlineto
					-105 -106 rlineto
					-211 -105 rlineto
					1053 hmoveto
					-211 105 rlineto
					-105 106 rlineto
					52 vlineto
					0 29 23 24 29 0 rrcurveto
					53 hlineto
					105 -105 rlineto
					106 -211 rlineto
					-1053 316 rmoveto
					105 210 rlineto
					106 106 rlineto
					52 hlineto
					29 0 24 -24 0 -29 rrcurveto
					-53 vlineto
					-105 -105 rlineto
					-211 -105 rlineto
					1053 hmoveto
					-211 105 rlineto
					-105 105 rlineto
					53 vlineto
					0 29 23 24 29 0 rrcurveto
					53 hlineto
					105 -106 rlineto
					106 -210 rlineto
					-527 -1579 rmoveto
					-105 211 rlineto
					736 vlineto
					-316 hlineto
					-58 0 -47 48 0 58 rrcurveto
					0 58 47 47 58 0 rrcurveto
					316 hlineto
					737 vlineto
					0 58 47 47 58 0 rrcurveto
					59 0 47 -47 0 -58 rrcurveto
					-737 vlineto
					210 hlineto
					211 -105 rlineto
					-211 -106 rlineto
					-210 hlineto
					-736 vlineto
					-106 -211 rlineto
					endchar
				</CharString>
				<CharString name="ntilde">
					1368 105 0 rmoveto
					-94 callgsubr
					endchar
				</CharString>
				<CharString name="numbersign">
					1368 211 211 rmoveto
					105 210 rlineto
					105 105 rlineto
					53 hlineto
					29 0 23 -23 0 -29 rrcurveto
					-53 vlineto
					-105 -105 rlineto
					-210 -105 rlineto
					842 hmoveto
					-211 105 rlineto
					-105 105 rlineto
					53 vlineto
					0 29 23 23 29 0 rrcurveto
					53 hlineto
					105 -105 rlineto
					106 -210 rlineto
					-842 315 rmoveto
					105 211 rlineto
					105 105 rlineto
					53 hlineto
					29 0 23 -24 0 -29 rrcurveto
					-52 vlineto
					-105 -105 rlineto
					-210 -106 rlineto
					842 hmoveto
					-211 106 rlineto
					-105 105 rlineto
					52 vlineto
					0 29 23 24 29 0 rrcurveto
					53 hlineto
					105 -105 rlineto
					106 -211 rlineto
					-737 737 rmoveto
					-211 105 rlineto
					-105 106 rlineto
					52 vlineto
					0 29 24 24 29 0 rrcurveto
					52 hlineto
					106 -105 rlineto
					105 -211 rlineto
					210 hmoveto
					106 211 rlineto
					105 105 rlineto
					52 hlineto
					30 0 23 -24 0 -29 rrcurveto
					-52 vlineto
					-105 -106 rlineto
					-211 -105 rlineto
					-210 316 rmoveto
					-211 105 rlineto
					-105 105 rlineto
					53 vlineto
					0 29 24 24 29 0 rrcurveto
					52 hlineto
					106 -106 rlineto
					105 -210 rlineto
					210 hmoveto
					106 210 rlineto
					105 106 rlineto
					52 hlineto
					30 0 23 -24 0 -29 rrcurveto
					-53 vlineto
					-105 -105 rlineto
					-211 -105 rlineto
					endchar
				</CharString>
				<CharString name="o">
					1157 105 0 rmoveto
					-93 callgsubr
					endchar
				</CharString>
				<CharString name="oacute">
					1157 105 0 rmoveto
					-93 callgsubr
					endchar
				</CharString>
				<CharString name="ocircumflex">
					1157 105 0 rmoveto
					-93 callgsubr
					endchar
				</CharString>
				<CharString name="odieresis">
					1157 105 0 rmoveto
					-93 callgsubr
					endchar
				</CharString>
				<CharString name="oe">
					1368 526 0 rmoveto
					-80 callgsubr
					endchar
				</CharString>
				<CharString name="ograve">
					1157 105 0 rmoveto
					-93 callgsubr
					endchar
				</CharString>
				<CharString name="one">
					947 0 1579 rmoveto
					105 210 rlineto
					106 106 rlineto
					52 hlineto
					29 0 24 -24 0 -29 rrcurveto
					-53 vlineto
					-105 -105 rlineto
					-211 -105 rlineto
					526 -1579 rmoveto
					-105 211 rlineto
					1684 vlineto
					0 58 47 47 58 0 rrcurveto
					59 0 47 -47 0 -58 rrcurveto
					-1684 vlineto
					-106 -211 rlineto
					endchar
				</CharString>
				<CharString name="oslash">
					1157 105 0 rmoveto
					-93 callgsubr
					endchar
				</CharString>
				<CharString name="otilde">
					1157 105 0 rmoveto
					-93 callgsubr
					endchar
				</CharString>
				<CharString name="p">
					1368 947 0 rmoveto
					-92 callgsubr
					endchar
				</CharString>
				<CharString name="parenleft">
					1368 105 0 rmoveto
					-58 0 -47 47 0 58 rrcurveto
					1369 vlineto
					0 58 47 47 58 0 rrcurveto
					58 0 48 -47 0 -58 rrcurveto
					-1211 vlineto
					0 -29 23 -23 29 0 rrcurveto
					579 hlineto
					211 -106 rlineto
					-211 -105 rlineto
					endchar
				</CharString>
				<CharString name="parenright">
					1368 947 421 rmoveto
					-105 211 rlineto
					1105 vlineto
					0 29 -23 23 -30 0 rrcurveto
					-684 hlineto
					-58 0 -47 48 0 58 rrcurveto
					0 58 47 47 58 0 rrcurveto
					842 hlineto
					59 0 47 -47 0 -58 rrcurveto
					-1263 vlineto
					-106 -211 rlineto
					endchar
				</CharString>
				<CharString name="percent">
					1368 737 0 rmoveto
					105 211 rlineto
					105 105 rlineto
					53 hlineto
					29 0 24 -24 0 -29 rrcurveto
					-53 vlineto
					-106 -105 rlineto
					-210 -105 rlineto
					-211 211 rmoveto
					106 210 rlineto
					105 105 rlineto
					52 hlineto
					30 0 23 -23 0 -29 rrcurveto
					-53 vlineto
					-105 -105 rlineto
					-211 -105 rlineto
					-526 -211 rmoveto
					105 vlineto
					947 1895 rlineto
					53 hlineto
					29 0 24 -24 0 -29 rrcurveto
					-52 vlineto
					-895 -1790 rlineto
					-53 -52 rlineto
					-105 -53 rlineto
					endchar
				</CharString>
				<CharString name="period">
					526 105 0 rmoveto
					-58 0 -47 47 0 58 rrcurveto
					0 58 47 48 58 0 rrcurveto
					58 0 48 -48 0 -58 rrcurveto
					0 -58 -48 -47 -58 0 rrcurveto
					endchar
				</CharString>
				<CharString name="periodcentered">
					526 105 947 rmoveto
					-58 0 -47 48 0 58 rrcurveto
					0 58 47 47 58 0 rrcurveto
					58 0 48 -47 0 -58 rrcurveto
					0 -59 -48 -47 -58 0 rrcurveto
					endchar
				</CharString>
				<CharString name="plus">
					1368 526 0 rmoveto
					-105 211 rlineto
					736 vlineto
					-316 hlineto
					-58 0 -47 48 0 58 rrcurveto
					0 58 47 47 58 0 rrcurveto
					316 hlineto
					737 vlineto
					0 58 47 47 58 0 rrcurveto
					59 0 47 -47 0 -58 rrcurveto
					-737 vlineto
					210 hlineto
					211 -105 rlineto
					-211 -106 rlineto
					-210 hlineto
					-736 vlineto
					-106 -211 rlineto
					endchar
				</CharString>
				<CharString name="plusminus">
					1368 105 0 rmoveto
					-58 0 -47 47 0 58 rrcurveto
					0 58 47 48 58 0 rrcurveto
					316 hlineto
					736 vlineto
					-316 hlineto
					-58 0 -47 48 0 58 rrcurveto
					0 58 47 47 58 0 rrcurveto
					316 hlineto
					737 vlineto
					0 58 47 47 58 0 rrcurveto
					59 0 47 -47 0 -58 rrcurveto
					-737 vlineto
					210 hlineto
					211 -105 rlineto
					-211 -106 rlineto
					-210 hlineto
					-736 vlineto
					210 hlineto
					211 -106 rlineto
					-211 -105 rlineto
					endchar
				</CharString>
				<CharString name="q">
					1368 421 1579 rmoveto
					-91 callgsubr
					endchar
				</CharString>
				<CharString name="question">
					526 105 0 rmoveto
					-58 0 -47 47 0 58 rrcurveto
					0 58 47 48 58 0 rrcurveto
					58 0 48 -48 0 -58 rrcurveto
					0 -58 -48 -47 -58 0 rrcurveto
					421 vmoveto
					-105 211 rlineto
					421 vlineto
					0 58 47 47 58 0 rrcurveto
					58 0 48 -47 0 -58 rrcurveto
					-421 vlineto
					-106 -211 rlineto
					947 vmoveto
					-58 0 -47 48 0 58 rrcurveto
					0 58 47 47 58 0 rrcurveto
					58 0 48 -47 0 -58 rrcurveto
					0 -59 -48 -47 -58 0 rrcurveto
					endchar
				</CharString>
				<CharString name="questiondown">
					526 105 421 rmoveto
					-58 0 -47 47 0 58 rrcurveto
					0 59 47 47 58 0 rrcurveto
					58 0 48 -48 0 -58 rrcurveto
					0 -58 -48 -47 -58 0 rrcurveto
					421 vmoveto
					-105 211 rlineto
					421 vlineto
					0 58 47 47 58 0 rrcurveto
					58 0 48 -47 0 -58 rrcurveto
					-421 vlineto
					-106 -211 rlineto
					947 vmoveto
					-58 0 -47 48 0 58 rrcurveto
					0 58 47 47 58 0 rrcurveto
					58 0 48 -47 0 -58 rrcurveto
					0 -58 -48 -48 -58 0 rrcurveto
					endchar
				</CharString>
				<CharString name="quotedbl">
					842 211 1158 rmoveto
					-77 callgsubr
					endchar
				</CharString>
				<CharString name="quotedblleft">
					842 211 1158 rmoveto
					-77 callgsubr
					endchar
				</CharString>
				<CharString name="quotedblright">
					842 211 1158 rmoveto
					-77 callgsubr
					endchar
				</CharString>
				<CharString name="quoteleft">
					631 0 1263 rmoveto
					-78 callgsubr
					endchar
				</CharString>
				<CharString name="quoteright">
					631 0 1263 rmoveto
					-78 callgsubr
					endchar
				</CharString>
				<CharString name="quotesingle">
					631 0 1263 rmoveto
					-78 callgsubr
					endchar
				</CharString>
				<CharString name="r">
					1368 105 0 rmoveto
					-90 callgsubr
					endchar
				</CharString>
				<CharString name="registered">
					1157 105 842 rmoveto
					-58 0 -47 47 0 58 rrcurveto
					0 59 47 47 58 0 rrcurveto
					527 hlineto
					736 vlineto
					-211 hlineto
					-58 0 -47 48 0 58 rrcurveto
					0 58 47 47 58 0 rrcurveto
					421 hlineto
					-1158 vlineto
					endchar
				</CharString>
				<CharString name="s">
					1368 316 211 rmoveto
					-89 callgsubr
					endchar
				</CharString>
				<CharString name="semicolon">
					631 0 0 rmoveto
					105 211 rlineto
					106 105 rlineto
					52 hlineto
					29 0 24 -24 0 -29 rrcurveto
					-53 vlineto
					-105 -105 rlineto
					-211 -105 rlineto
					211 1368 rmoveto
					-59 0 -47 48 0 58 rrcurveto
					0 58 47 47 59 0 rrcurveto
					58 0 47 -47 0 -58 rrcurveto
					0 -59 -47 -47 -58 0 rrcurveto
					endchar
				</CharString>
				<CharString name="seven">
					1368 0 211 rmoveto
					105 210 rlineto
					106 105 rlineto
					52 hlineto
					29 0 24 -23 0 -29 rrcurveto
					-53 vlineto
					-105 -105 rlineto
					-211 -105 rlineto
					315 vmoveto
					105 211 rlineto
					106 105 rlineto
					52 hlineto
					29 0 24 -24 0 -29 rrcurveto
					-52 vlineto
					-105 -105 rlineto
					-211 -106 rlineto
					737 vmoveto
					105 211 rlineto
					106 105 rlineto
					52 hlineto
					29 0 24 -24 0 -29 rrcurveto
					-52 vlineto
					-105 -106 rlineto
					-211 -105 rlineto
					1053 hmoveto
					-211 105 rlineto
					-105 106 rlineto
					52 vlineto
					0 29 23 24 29 0 rrcurveto
					53 hlineto
					105 -105 rlineto
					106 -211 rlineto
					-1053 316 rmoveto
					105 210 rlineto
					106 106 rlineto
					52 hlineto
					29 0 24 -24 0 -29 rrcurveto
					-53 vlineto
					-105 -105 rlineto
					-211 -105 rlineto
					1053 hmoveto
					-211 105 rlineto
					-105 105 rlineto
					53 vlineto
					0 29 23 24 29 0 rrcurveto
					53 hlineto
					105 -106 rlineto
					106 -210 rlineto
					-527 -1579 rmoveto
					-105 211 rlineto
					736 vlineto
					-316 hlineto
					-58 0 -47 48 0 58 rrcurveto
					0 58 47 47 58 0 rrcurveto
					316 hlineto
					737 vlineto
					0 58 47 47 58 0 rrcurveto
					59 0 47 -47 0 -58 rrcurveto
					-737 vlineto
					210 hlineto
					211 -105 rlineto
					-211 -106 rlineto
					-210 hlineto
					-736 vlineto
					-106 -211 rlineto
					endchar
				</CharString>
				<CharString name="six">
					1368 0 211 rmoveto
					105 210 rlineto
					106 105 rlineto
					52 hlineto
					29 0 24 -23 0 -29 rrcurveto
					-53 vlineto
					-105 -105 rlineto
					-211 -105 rlineto
					315 vmoveto
					105 211 rlineto
					106 105 rlineto
					52 hlineto
					29 0 24 -24 0 -29 rrcurveto
					-52 vlineto
					-105 -105 rlineto
					-211 -106 rlineto
					737 vmoveto
					105 211 rlineto
					106 105 rlineto
					52 hlineto
					29 0 24 -24 0 -29 rrcurveto
					-52 vlineto
					-105 -106 rlineto
					-211 -105 rlineto
					316 vmoveto
					105 210 rlineto
					106 106 rlineto
					52 hlineto
					29 0 24 -24 0 -29 rrcurveto
					-53 vlineto
					-105 -105 rlineto
					-211 -105 rlineto
					1053 hmoveto
					-211 105 rlineto
					-105 105 rlineto
					53 vlineto
					0 29 23 24 29 0 rrcurveto
					53 hlineto
					105 -106 rlineto
					106 -210 rlineto
					-527 -1579 rmoveto
					-105 211 rlineto
					736 vlineto
					-316 hlineto
					-58 0 -47 48 0 58 rrcurveto
					0 58 47 47 58 0 rrcurveto
					316 hlineto
					737 vlineto
					0 58 47 47 58 0 rrcurveto
					59 0 47 -47 0 -58 rrcurveto
					-737 vlineto
					210 hlineto
					211 -105 rlineto
					-211 -106 rlineto
					-210 hlineto
					-736 vlineto
					-106 -211 rlineto
					endchar
				</CharString>
				<CharString name="slash">
					1368 0 0 rmoveto
					105 vlineto
					947 1895 rlineto
					53 hlineto
					29 0 24 -24 0 -29 rrcurveto
					-52 vlineto
					-895 -1790 rlineto
					-53 -52 rlineto
					-105 -53 rlineto
					endchar
				</CharString>
				<CharString name="space">
					1368 endchar
				</CharString>
				<CharString name="t">
					1368 0 0 rmoveto
					-88 callgsubr
					endchar
				</CharString>
				<CharString name="three">
					947 0 211 rmoveto
					105 210 rlineto
					106 105 rlineto
					52 hlineto
					29 0 24 -23 0 -29 rrcurveto
					-53 vlineto
					-105 -105 rlineto
					-211 -105 rlineto
					1052 vmoveto
					105 211 rlineto
					106 105 rlineto
					52 hlineto
					29 0 24 -24 0 -29 rrcurveto
					-52 vlineto
					-105 -106 rlineto
					-211 -105 rlineto
					316 vmoveto
					105 210 rlineto
					106 106 rlineto
					52 hlineto
					29 0 24 -24 0 -29 rrcurveto
					-53 vlineto
					-105 -105 rlineto
					-211 -105 rlineto
					526 -1579 rmoveto
					-105 211 rlineto
					1684 vlineto
					0 58 47 47 58 0 rrcurveto
					59 0 47 -47 0 -58 rrcurveto
					-1684 vlineto
					-106 -211 rlineto
					endchar
				</CharString>
				<CharString name="trademark">
					1368 737 842 rmoveto
					-58 0 -47 47 0 58 rrcurveto
					0 59 47 47 58 0 rrcurveto
					210 hlineto
					106 -106 rlineto
					-106 -105 rlineto
					-947 hmoveto
					105 vlineto
					105 211 rlineto
					53 hlineto
					29 0 24 -24 0 -29 rrcurveto
					-52 vlineto
					-53 -106 rlineto
					-53 -52 rlineto
					-105 -53 rlineto
					947 316 rmoveto
					-105 105 rlineto
					316 vlineto
					0 58 47 47 58 0 rrcurveto
					59 0 47 -47 0 -58 rrcurveto
					-316 vlineto
					-106 -105 rlineto
					-526 -316 rmoveto
					-105 211 rlineto
					842 vlineto
					0 58 47 47 58 0 rrcurveto
					58 0 47 -47 0 -58 rrcurveto
					-842 vlineto
					-105 -211 rlineto
					316 947 rmoveto
					-58 0 -47 48 0 58 rrcurveto
					0 58 47 47 58 0 rrcurveto
					210 hlineto
					106 -105 rlineto
					-106 -106 rlineto
					endchar
				</CharString>
				<CharString name="two">
					947 0 1263 rmoveto
					105 211 rlineto
					106 105 rlineto
					52 hlineto
					29 0 24 -24 0 -29 rrcurveto
					-52 vlineto
					-105 -106 rlineto
					-211 -105 rlineto
					316 vmoveto
					105 210 rlineto
					106 106 rlineto
					52 hlineto
					29 0 24 -24 0 -29 rrcurveto
					-53 vlineto
					-105 -105 rlineto
					-211 -105 rlineto
					526 -1579 rmoveto
					-105 211 rlineto
					1684 vlineto
					0 58 47 47 58 0 rrcurveto
					59 0 47 -47 0 -58 rrcurveto
					-1684 vlineto
					-106 -211 rlineto
					endchar
				</CharString>
				<CharString name="u">
					1368 105 0 rmoveto
					-87 callgsubr
					endchar
				</CharString>
				<CharString name="uacute">
					1368 105 0 rmoveto
					-87 callgsubr
					endchar
				</CharString>
				<CharString name="ucircumflex">
					1368 105 0 rmoveto
					-87 callgsubr
					endchar
				</CharString>
				<CharString name="udieresis">
					1368 105 0 rmoveto
					-87 callgsubr
					endchar
				</CharString>
				<CharString name="ugrave">
					1368 105 0 rmoveto
					-87 callgsubr
					endchar
				</CharString>
				<CharString name="underscore">
					1368 105 0 rmoveto
					-58 0 -47 47 0 58 rrcurveto
					0 58 47 48 58 0 rrcurveto
					737 hlineto
					211 -106 rlineto
					-211 -105 rlineto
					endchar
				</CharString>
				<CharString name="uniB2">
					842 0 1474 rmoveto
					105 210 rlineto
					106 hlineto
					-105 vlineto
					-211 -105 rlineto
					315 vmoveto
					105 211 rlineto
					106 hlineto
					-105 vlineto
					-211 -106 rlineto
					421 -1263 rmoveto
					-105 211 rlineto
					1158 vlineto
					0 58 47 47 58 0 rrcurveto
					58 0 47 -47 0 -58 rrcurveto
					-1158 vlineto
					-105 -211 rlineto
					endchar
				</CharString>
				<CharString name="uniB3">
					842 0 526 rmoveto
					105 211 rlineto
					106 hlineto
					-105 vlineto
					-211 -106 rlineto
					948 vmoveto
					105 210 rlineto
					106 hlineto
					-105 vlineto
					-211 -105 rlineto
					315 vmoveto
					105 211 rlineto
					106 hlineto
					-105 vlineto
					-211 -106 rlineto
					421 -1263 rmoveto
					-105 211 rlineto
					1158 vlineto
					0 58 47 47 58 0 rrcurveto
					58 0 47 -47 0 -58 rrcurveto
					-1158 vlineto
					-105 -211 rlineto
					endchar
				</CharString>
				<CharString name="uring">
					1368 105 0 rmoveto
					-87 callgsubr
					endchar
				</CharString>
				<CharString name="v">
					1368 105 0 rmoveto
					-86 callgsubr
					endchar
				</CharString>
				<CharString name="w">
					1368 105 0 rmoveto
					-85 callgsubr
					endchar
				</CharString>
				<CharString name="x">
					1368 0 105 rmoveto
					-84 callgsubr
					endchar
				</CharString>
				<CharString name="y">
					1368 421 1263 rmoveto
					-83 callgsubr
					endchar
				</CharString>
				<CharString name="yacute">
					1368 421 1263 rmoveto
					-83 callgsubr
					endchar
				</CharString>
				<CharString name="ydieresis">
					1368 421 1263 rmoveto
					-83 callgsubr
					endchar
				</CharString>
				<CharString name="z">
					1368 947 0 rmoveto
					-82 callgsubr
					endchar
				</CharString>
				<CharString name="zero">
					1368 105 947 rmoveto
					-79 callgsubr
					endchar
				</CharString>
			<CharString index="0">
				-210 105 rlineto
				-316 316 rlineto
				52 vlineto
				0 29 24 24 29 0 rrcurveto
				52 hlineto
				316 -316 rlineto
				105 -210 rlineto
				-526 -1474 rmoveto
				105 211 rlineto
				737 736 rlineto
				948 vlineto
				0 58 47 47 58 0 rrcurveto
				59 0 47 -47 0 -58 rrcurveto
				-948 vlineto
				-842 -842 rlineto
				-211 -105 rlineto
				return
			</CharString>
			<CharString index="1">
				-105 211 rlineto
				316 vlineto
				0 58 47 47 58 0 rrcurveto
				58 0 48 -47 0 -58 rrcurveto
				-316 vlineto
				-106 -211 rlineto
				421 -1368 rmoveto
				-105 211 rlineto
				1684 vlineto
				0 58 47 47 58 0 rrcurveto
				59 0 47 -47 0 -58 rrcurveto
				-1684 vlineto
				-106 -211 rlineto
				421 1368 rmoveto
				-105 211 rlineto
				316 vlineto
				0 58 47 47 58 0 rrcurveto
				59 0 47 -47 0 -58 rrcurveto
				-316 vlineto
				-106 -211 rlineto
				return
			</CharString>
			<CharString index="2">
				-105 211 rlineto
				316 vlineto
				0 58 47 47 58 0 rrcurveto
				58 0 47 -47 0 -58 rrcurveto
				-316 vlineto
				-105 -211 rlineto
				-632 -947 rmoveto
				-105 211 rlineto
				1684 vlineto
				0 58 47 47 58 0 rrcurveto
				737 hlineto
				211 -105 rlineto
				-211 -106 rlineto
				-631 hlineto
				-1578 vlineto
				-106 -211 rlineto
				return
			</CharString>
			<CharString index="3">
				-105 211 rlineto
				315 vlineto
				0 59 47 47 58 0 rrcurveto
				58 0 48 -48 0 -58 rrcurveto
				-315 vlineto
				-106 -211 rlineto
				842 hmoveto
				-105 211 rlineto
				315 vlineto
				0 59 47 47 58 0 rrcurveto
				59 0 47 -48 0 -58 rrcurveto
				-315 vlineto
				-106 -211 rlineto
				-421 hmoveto
				-105 211 rlineto
				1368 vlineto
				-316 hlineto
				-58 0 -47 47 0 58 rrcurveto
				0 58 47 47 58 0 rrcurveto
				316 hlineto
				106 vlineto
				0 58 47 47 58 0 rrcurveto
				59 0 47 -47 0 -58 rrcurveto
				-106 vlineto
				210 hlineto
				211 -105 rlineto
				-211 -105 rlineto
				-210 hlineto
				-1368 vlineto
				-106 -211 rlineto
				return
			</CharString>
			<CharString index="4">
				-58 0 -47 47 0 58 rrcurveto
				0 58 47 48 58 0 rrcurveto
				211 hlineto
				210 -106 rlineto
				-210 -105 rlineto
				737 hmoveto
				-106 53 rlineto
				-52 52 rlineto
				-895 1790 rlineto
				52 vlineto
				0 29 24 24 29 0 rrcurveto
				52 hlineto
				948 -1895 rlineto
				-105 vlineto
				-106 1368 rmoveto
				-105 211 rlineto
				316 vlineto
				0 58 47 47 58 0 rrcurveto
				59 0 47 -47 0 -58 rrcurveto
				-316 vlineto
				-106 -211 rlineto
				return
			</CharString>
			<CharString index="5">
				-105 211 rlineto
				526 vlineto
				0 58 47 47 58 0 rrcurveto
				58 0 48 -47 0 -58 rrcurveto
				-526 vlineto
				-106 -211 rlineto
				632 737 rmoveto
				-105 210 rlineto
				527 vlineto
				0 58 47 47 58 0 rrcurveto
				58 0 47 -47 0 -58 rrcurveto
				-527 vlineto
				-105 -210 rlineto
				-632 316 rmoveto
				-105 210 rlineto
				632 vlineto
				0 58 47 47 58 0 rrcurveto
				58 0 48 -47 0 -58 rrcurveto
				-632 vlineto
				-106 -210 rlineto
				return
			</CharString>
			<CharString index="6">
				-105 211 rlineto
				736 vlineto
				0 59 47 47 58 0 rrcurveto
				59 0 47 -48 0 -58 rrcurveto
				-736 vlineto
				-106 -211 rlineto
				-842 1158 rmoveto
				105 vlineto
				316 632 rlineto
				53 hlineto
				29 0 23 -24 0 -29 rrcurveto
				-53 vlineto
				-263 -526 rlineto
				-52 -52 rlineto
				-106 -53 rlineto
				-105 -1158 rmoveto
				105 vlineto
				947 1895 rlineto
				53 hlineto
				29 0 24 -24 0 -29 rrcurveto
				-52 vlineto
				-895 -1790 rlineto
				-53 -52 rlineto
				-105 -53 rlineto
				return
			</CharString>
			<CharString index="7">
				-210 105 rlineto
				-316 316 rlineto
				53 vlineto
				0 29 24 23 29 0 rrcurveto
				52 hlineto
				316 -315 rlineto
				105 -211 rlineto
				421 vmoveto
				-105 211 rlineto
				1263 vlineto
				0 58 47 47 58 0 rrcurveto
				59 0 47 -47 0 -58 rrcurveto
				-1263 vlineto
				-106 -211 rlineto
				421 947 rmoveto
				-105 211 rlineto
				316 vlineto
				0 58 47 47 58 0 rrcurveto
				59 0 47 -47 0 -58 rrcurveto
				-316 vlineto
				-106 -211 rlineto
				return
			</CharString>
			<CharString index="8">
				-105 211 rlineto
				316 vlineto
				0 58 47 47 58 0 rrcurveto
				58 0 48 -47 0 -58 rrcurveto
				-316 vlineto
				-106 -211 rlineto
				-105 -1368 rmoveto
				105 vlineto
				842 1684 rlineto
				106 vlineto
				0 58 47 47 58 0 rrcurveto
				59 0 47 -47 0 -58 rrcurveto
				-1684 vlineto
				-106 -211 rlineto
				-105 211 rlineto
				1263 vlineto
				-684 -1369 rlineto
				-53 -52 rlineto
				-105 -53 rlineto
				return
			</CharString>
			<CharString index="9">
				105 210 rlineto
				316 316 rlineto
				52 hlineto
				30 0 23 -24 0 -29 rrcurveto
				-53 vlineto
				-316 -315 rlineto
				-210 -105 rlineto
				-211 -211 rmoveto
				-105 211 rlineto
				1684 vlineto
				0 58 47 47 58 0 rrcurveto
				58 0 48 -47 0 -58 rrcurveto
				-1684 vlineto
				-106 -211 rlineto
				211 1474 rmoveto
				105 210 rlineto
				316 316 rlineto
				52 hlineto
				30 0 23 -24 0 -29 rrcurveto
				-52 vlineto
				-316 -316 rlineto
				-210 -105 rlineto
				return
			</CharString>
			<CharString index="10">
				-105 211 rlineto
				1684 vlineto
				0 58 47 47 58 0 rrcurveto
				58 0 48 -47 0 -58 rrcurveto
				-1684 vlineto
				-106 -211 rlineto
				316 1789 rmoveto
				-58 0 -47 48 0 58 rrcurveto
				0 58 47 47 58 0 rrcurveto
				211 hlineto
				105 -105 rlineto
				-105 -106 rlineto
				315 -1789 rmoveto
				-105 211 rlineto
				1684 vlineto
				0 58 47 47 58 0 rrcurveto
				59 0 47 -47 0 -58 rrcurveto
				-1684 vlineto
				-106 -211 rlineto
				return
			</CharString>
			<CharString index="11">
				105 211 rlineto
				316 316 rlineto
				52 hlineto
				30 0 23 -24 0 -29 rrcurveto
				-53 vlineto
				-316 -315 rlineto
				-210 -106 rlineto
				-211 -947 rmoveto
				-105 211 rlineto
				1684 vlineto
				0 58 47 47 58 0 rrcurveto
				58 0 48 -47 0 -58 rrcurveto
				-1684 vlineto
				-106 -211 rlineto
				211 1474 rmoveto
				105 210 rlineto
				316 316 rlineto
				52 hlineto
				30 0 23 -24 0 -29 rrcurveto
				-52 vlineto
				-316 -316 rlineto
				-210 -105 rlineto
				return
			</CharString>
			<CharString index="12">
				-58 0 -47 47 0 58 rrcurveto
				0 58 47 48 58 0 rrcurveto
				842 hlineto
				106 -106 rlineto
				-106 -105 rlineto
				316 vmoveto
				-105 105 rlineto
				1158 vlineto
				0 58 47 47 58 0 rrcurveto
				59 0 47 -47 0 -58 rrcurveto
				-1158 vlineto
				-106 -105 rlineto
				-842 1473 rmoveto
				-58 0 -47 48 0 58 rrcurveto
				0 58 47 47 58 0 rrcurveto
				842 hlineto
				106 -105 rlineto
				-106 -106 rlineto
				return
			</CharString>
			<CharString index="13">
				-58 0 -47 47 0 58 rrcurveto
				0 58 47 48 58 0 rrcurveto
				737 hlineto
				211 -106 rlineto
				-211 -105 rlineto
				-737 316 rmoveto
				-105 105 rlineto
				1158 vlineto
				0 58 47 47 58 0 rrcurveto
				58 0 48 -47 0 -58 rrcurveto
				-1158 vlineto
				-106 -105 rlineto
				1473 vmoveto
				-58 0 -47 48 0 58 rrcurveto
				0 58 47 47 58 0 rrcurveto
				737 hlineto
				211 -105 rlineto
				-211 -106 rlineto
				return
			</CharString>
			<CharString index="14">
				-105 211 rlineto
				1684 vlineto
				0 58 47 47 58 0 rrcurveto
				58 0 48 -47 0 -58 rrcurveto
				-1684 vlineto
				-106 -211 rlineto
				632 hmoveto
				-105 211 rlineto
				1684 vlineto
				0 58 47 47 58 0 rrcurveto
				58 0 47 -47 0 -58 rrcurveto
				-1684 vlineto
				-105 -211 rlineto
				return
			</CharString>
			<CharString index="15">
				-105 211 rlineto
				1368 vlineto
				0 58 47 47 58 0 rrcurveto
				59 0 47 -47 0 -58 rrcurveto
				-1368 vlineto
				-106 -211 rlineto
				-842 1789 rmoveto
				-58 0 -47 48 0 58 rrcurveto
				0 58 47 47 58 0 rrcurveto
				842 hlineto
				106 -105 rlineto
				-106 -106 rlineto
				return
			</CharString>
			<CharString index="16">
				-210 105 rlineto
				-211 211 rlineto
				52 vlineto
				0 29 24 24 29 0 rrcurveto
				52 hlineto
				211 -211 rlineto
				105 -210 rlineto
				211 -1579 rmoveto
				-106 211 rlineto
				1684 vlineto
				0 58 47 47 59 0 rrcurveto
				58 0 47 -47 0 -58 rrcurveto
				-1684 vlineto
				-105 -211 rlineto
				315 hmoveto
				-105 211 rlineto
				1684 vlineto
				0 58 47 47 58 0 rrcurveto
				59 0 47 -47 0 -58 rrcurveto
				-1684 vlineto
				-106 -211 rlineto
				return
			</CharString>
			<CharString index="17">
				-58 0 -47 47 0 58 rrcurveto
				0 58 47 48 58 0 rrcurveto
				527 hlineto
				105 -106 rlineto
				-105 -105 rlineto
				315 hmoveto
				-105 105 rlineto
				1474 vlineto
				0 58 47 47 58 0 rrcurveto
				59 0 47 -47 0 -58 rrcurveto
				-1474 vlineto
				-106 -105 rlineto
				-421 1789 rmoveto
				-58 0 -47 48 0 58 rrcurveto
				0 58 47 47 58 0 rrcurveto
				421 hlineto
				106 -105 rlineto
				-106 -106 rlineto
				return
			</CharString>
			<CharString index="18">
				105 210 rlineto
				-316 hlineto
				-58 0 -47 47 0 58 rrcurveto
				0 59 47 47 58 0 rrcurveto
				527 hlineto
				210 210 rlineto
				53 hlineto
				29 0 23 -24 0 -29 rrcurveto
				-52 vlineto
				-105 -105 rlineto
				211 -106 rlineto
				-211 -105 rlineto
				-210 hlineto
				-106 -105 rlineto
				-210 -105 rlineto
				105 842 rmoveto
				105 210 rlineto
				421 421 rlineto
				53 hlineto
				29 0 24 -23 0 -30 rrcurveto
				-52 vlineto
				-421 -421 rlineto
				-211 -105 rlineto
				return
			</CharString>
			<CharString index="19">
				105 211 rlineto
				527 526 rlineto
				52 hlineto
				29 0 24 -24 0 -29 rrcurveto
				-53 vlineto
				-526 -526 rlineto
				-211 -105 rlineto
				947 hmoveto
				-105 211 rlineto
				1684 vlineto
				0 58 47 47 58 0 rrcurveto
				59 0 47 -47 0 -58 rrcurveto
				-1684 vlineto
				-106 -211 rlineto
				return
			</CharString>
			<CharString index="20">
				-58 0 -47 47 0 58 rrcurveto
				0 58 47 48 58 0 rrcurveto
				527 hlineto
				105 -106 rlineto
				-105 -105 rlineto
				-527 316 rmoveto
				-105 105 rlineto
				1474 vlineto
				0 58 47 47 58 0 rrcurveto
				58 0 48 -47 0 -58 rrcurveto
				-1474 vlineto
				-106 -105 rlineto
				842 -316 rmoveto
				-105 105 rlineto
				1790 vlineto
				0 58 47 47 58 0 rrcurveto
				59 0 47 -47 0 -58 rrcurveto
				-1790 vlineto
				-106 -105 rlineto
				return
			</CharString>
			<CharString index="21">
				-105 211 rlineto
				1684 vlineto
				0 58 47 47 58 0 rrcurveto
				58 0 48 -47 0 -58 rrcurveto
				-1684 vlineto
				-106 -211 rlineto
				421 hmoveto
				-58 0 -47 47 0 58 rrcurveto
				1790 vlineto
				0 58 47 47 58 0 rrcurveto
				59 0 47 -47 0 -58 rrcurveto
				-1684 vlineto
				210 hlineto
				211 -106 rlineto
				-211 -105 rlineto
				return
			</CharString>
			<CharString index="22">
				-105 211 rlineto
				1684 vlineto
				0 58 47 47 58 0 rrcurveto
				58 0 48 -47 0 -58 rrcurveto
				-1684 vlineto
				-106 -211 rlineto
				421 hmoveto
				-58 0 -47 47 0 58 rrcurveto
				1790 vlineto
				0 58 47 47 58 0 rrcurveto
				316 hlineto
				211 -105 rlineto
				-211 -106 rlineto
				-210 hlineto
				-1578 vlineto
				210 hlineto
				211 -106 rlineto
				-211 -105 rlineto
				return
			</CharString>
			<CharString index="23">
				105 211 rlineto
				842 842 rlineto
				53 hlineto
				29 0 24 -24 0 -29 rrcurveto
				-52 vlineto
				-842 -842 rlineto
				-211 -106 rlineto
				526 1263 rmoveto
				-210 106 rlineto
				-316 315 rlineto
				53 vlineto
				0 29 24 24 29 0 rrcurveto
				52 hlineto
				316 -316 rlineto
				105 -211 rlineto
				527 hmoveto
				-211 106 rlineto
				-316 315 rlineto
				53 vlineto
				0 29 24 24 29 0 rrcurveto
				53 hlineto
				315 -316 rlineto
				106 -211 rlineto
				return
			</CharString>
			<CharString index="24">
				-210 105 rlineto
				-211 211 rlineto
				52 vlineto
				0 30 24 23 29 0 rrcurveto
				52 hlineto
				211 -210 rlineto
				105 -211 rlineto
				105 -1263 rmoveto
				-105 211 rlineto
				1684 vlineto
				0 58 47 47 58 0 rrcurveto
				59 0 47 -47 0 -58 rrcurveto
				-1106 vlineto
				0 29 23 24 29 0 rrcurveto
				53 hlineto
				210 -210 rlineto
				106 -211 rlineto
				-211 105 rlineto
				-210 211 rlineto
				-526 vlineto
				-106 -211 rlineto
				return
			</CharString>
			<CharString index="25">
				-105 211 rlineto
				1473 vlineto
				-421 -421 rlineto
				-53 -52 rlineto
				158 -158 rlineto
				106 -211 rlineto
				-211 105 rlineto
				-105 106 rlineto
				-53 52 rlineto
				-52 -52 rlineto
				-211 -106 rlineto
				105 211 rlineto
				1 hlineto
				52 53 rlineto
				-158 157 rlineto
				53 vlineto
				0 29 24 24 29 0 rrcurveto
				52 hlineto
				106 -106 rlineto
				52 -52 rlineto
				684 684 rlineto
				53 hlineto
				29 0 24 -24 0 -29 rrcurveto
				-1736 vlineto
				-106 -211 rlineto
				return
			</CharString>
			<CharString index="26">
				-58 0 -47 47 0 58 rrcurveto
				0 58 47 48 58 0 rrcurveto
				106 hlineto
				105 -106 rlineto
				-105 -105 rlineto
				-316 1579 rmoveto
				-211 105 rlineto
				-105 105 rlineto
				53 vlineto
				0 29 24 24 29 0 rrcurveto
				52 hlineto
				106 -106 rlineto
				105 -210 rlineto
				-316 -1579 rmoveto
				105 211 rlineto
				316 315 rlineto
				1369 vlineto
				0 58 47 47 58 0 rrcurveto
				59 0 47 -47 0 -58 rrcurveto
				421 -842 rlineto
				-842 vlineto
				-106 -211 rlineto
				-105 211 rlineto
				947 vlineto
				-210 421 rlineto
				-1053 vlineto
				-421 -421 rlineto
				-211 -105 rlineto
				947 1684 rmoveto
				-105 105 rlineto
				106 vlineto
				0 58 47 47 58 0 rrcurveto
				59 0 47 -47 0 -58 rrcurveto
				-106 vlineto
				-106 -105 rlineto
				return
			</CharString>
			<CharString index="27">
				-58 0 -47 47 0 58 rrcurveto
				0 58 47 48 58 0 rrcurveto
				106 hlineto
				105 -106 rlineto
				-105 -105 rlineto
				-527 hmoveto
				-105 211 rlineto
				1684 vlineto
				0 58 47 47 58 0 rrcurveto
				58 0 48 -47 0 -58 rrcurveto
				-1684 vlineto
				-106 -211 rlineto
				842 hmoveto
				-105 211 rlineto
				947 vlineto
				-210 421 rlineto
				-1053 vlineto
				-106 -210 rlineto
				-105 210 rlineto
				1369 vlineto
				0 58 47 47 58 0 rrcurveto
				59 0 47 -47 0 -58 rrcurveto
				421 -842 rlineto
				-842 vlineto
				-106 -211 rlineto
				1684 vmoveto
				-105 105 rlineto
				106 vlineto
				0 58 47 47 58 0 rrcurveto
				59 0 47 -47 0 -58 rrcurveto
				-106 vlineto
				-106 -105 rlineto
				return
			</CharString>
			<CharString index="28">
				-58 0 -47 48 0 58 rrcurveto
				0 58 47 47 58 0 rrcurveto
				737 hlineto
				211 -105 rlineto
				-211 -106 rlineto
				return
			</CharString>
			<CharString index="29">
				105 211 rlineto
				106 105 rlineto
				52 hlineto
				29 0 24 -24 0 -29 rrcurveto
				-52 vlineto
				-105 -106 rlineto
				-211 -105 rlineto
				return
			</CharString>
			<CharString index="30">
				105 210 rlineto
				105 106 rlineto
				53 hlineto
				29 0 23 -24 0 -29 rrcurveto
				-53 vlineto
				-105 -105 rlineto
				-210 -105 rlineto
				-211 210 rmoveto
				105 211 rlineto
				106 105 rlineto
				52 hlineto
				29 0 24 -23 0 -30 rrcurveto
				-52 vlineto
				-105 -105 rlineto
				-211 -106 rlineto
				return
			</CharString>
</ttFont>
